<svg width="293" height="76" viewBox="0 0 293 76" fill="none" xmlns="http://www.w3.org/2000/svg">
<path d="M278.083 18.7455C274.591 19.051 273.16 20.832 271.337 24.4412C271.224 24.727 270.796 24.5576 270.697 24.2212C269.886 21.2565 267.09 20.0523 264.351 20.2919C260.996 20.5854 257.696 23.0819 258.142 27.3894C259.889 44.2087 259.085 37.3798 260.65 52.9042C261.102 57.2802 264.363 59.0647 267.444 58.7951C270.799 58.5016 274.018 55.8742 273.579 51.6351C273.163 47.6699 272.345 37.5306 272.195 35.8189C271.911 33.36 272.916 32.2372 274.354 32.1114C274.97 32.0575 275.599 32.1405 276.313 32.4229C277.879 32.9758 279.279 33.1984 280.511 33.0905C288.933 32.3537 289.369 17.6202 278.083 18.7455Z" fill="white"/>
<path d="M248.092 46.7631C246.215 47.5333 243.894 47.9114 241.912 47.7031C238.631 47.3582 235.925 45.4844 236.425 41.3903C236.454 41.1169 241.702 41.8068 244.929 42.0078C252.894 42.4994 256.783 41.6641 257.469 34.4798C258.353 24.7593 249.693 19.7026 240.933 19.5421C225.758 19.2602 223.519 33.3304 223.096 38.6763C222.378 49.4509 228.84 57.663 238.176 58.9206C243.972 59.668 250.569 58.7028 254.615 52.4246C256.263 49.9025 255.665 46.3842 252.247 46.025C251.154 45.9101 249.751 46.1081 248.092 46.7631ZM237.236 32.3533C237.362 30.5006 239.733 29.644 241.92 29.8739C243.834 30.0751 245.593 31.0893 245.583 33.1614C245.579 33.8522 243.144 34.0108 240.888 33.7737C238.974 33.5726 237.165 33.0368 237.236 32.3533Z" fill="white"/>
<path d="M205.702 8.52948C205.763 10.8009 206.19 14.903 206.643 20.8658C206.667 21.1396 206.411 21.369 206.194 21.25C204.3 20.1049 201.769 19.5674 199.099 19.801C192.663 20.3641 185.589 25.4675 185.655 37.2594C185.786 53.7372 193.481 59.6872 199.849 59.1301C203.683 58.7946 207.04 56.1552 207.913 51.9393C207.963 51.7279 208.38 51.7604 208.398 51.9658C208.832 56.1364 212.379 58.0339 215.665 57.7464C219.089 57.4468 222.314 54.8879 221.963 50.0891C220.809 34.5288 219.774 24.2705 218.511 7.47778C218.191 3.02134 214.992 1.16239 211.843 1.43794C208.625 1.71948 205.536 4.26647 205.702 8.52948ZM206.549 33.9826C206.66 36.0426 206.834 38.0282 206.939 40.0198C206.96 41.0528 205.651 41.8573 204.35 41.9711C203.802 42.019 203.311 41.924 202.882 41.7546C201.316 41.2017 200.407 39.4874 200.257 37.7757C200.11 35.3048 201.818 32.7407 204.259 32.2512C205.006 32.1168 205.914 32.2444 206.316 32.8991C206.551 33.2235 206.519 33.6403 206.549 33.9826Z" fill="white"/>
<path d="M184.783 32.4038C185.516 25.4318 180.396 20.8853 174.86 20.3034C171.305 19.9298 167.586 21.1284 165.1 24.3917C164.935 24.6507 164.546 24.4026 164.514 24.0536C164.283 20.9886 161.768 19.273 159.034 18.9856C155.685 18.6336 151.969 20.4545 151.585 24.768C150.091 41.6116 150.604 34.7547 149.178 50.2925C148.787 54.6743 151.647 57.0482 154.723 57.3715C158.072 57.7236 161.734 55.7587 162.112 51.5136C162.46 47.542 163.591 37.4328 163.703 35.7168C163.969 33.1877 166.026 32.0218 167.94 32.223C169.717 32.4098 171.358 33.8953 171.063 36.6978C170.647 40.6623 170.043 46.404 169.494 52.2895C169.178 56.6102 172.236 59.074 175.517 59.4188C178.866 59.7709 182.302 57.9896 182.657 53.9495C183.225 47.2365 183.975 39.437 184.783 32.4038Z" fill="white"/>
<path d="M139.771 16.5284C143.606 16.193 146.48 12.7679 146.144 8.93364C145.803 5.03095 142.378 2.15695 138.543 2.4924C134.641 2.83384 131.767 6.25894 132.108 10.1616C132.444 13.9959 135.869 16.8699 139.771 16.5284ZM133.727 26.3022C135.126 43.083 134.563 36.6469 135.649 52.2132C135.976 56.7381 139.311 58.5851 142.529 58.3036C145.747 58.022 148.842 55.5435 148.545 51.3609C147.486 35.3094 147.753 39.1496 146.549 25.3875C146.24 21.0679 142.613 19.0395 139.326 19.3271C136.177 19.6026 133.344 21.9202 133.727 26.3022Z" fill="white"/>
<path d="M113.274 9.93151C111.353 9.79871 109.04 10.1085 108.016 15.253C105.834 26.1502 104.951 41.1231 104.283 51.4192C104.018 55.2613 106.511 57.182 109.314 57.4766C112.458 57.807 116.037 55.9718 116.357 52.2735C116.475 50.4891 117.058 48.8917 117.654 44.5315C118.067 41.2577 119.37 40.7035 121.079 40.8831C122.377 41.0196 123.845 41.5194 125.356 41.6091C132.281 42.1297 133.308 31.042 126.937 30.5106C124.128 30.2844 123.635 30.3708 120.847 29.9396C118.537 29.5586 119.119 22.7089 122.058 23.0178C123.562 23.1759 128.156 23.5205 129.735 23.6174C137.808 24.3968 138.831 12.6868 132.974 11.8639C129.845 11.3967 117.944 10.215 113.274 9.93151Z" fill="white"/>
<path d="M94.0466 59.1838C98.3096 59.0178 97.476 58.9528 99.661 58.6926C107.642 57.6494 107.362 46.5661 98.997 47.16C95.7105 47.4475 93.6915 46.4513 93.5238 44.5342C93.4014 43.9239 92.6698 33.984 92.4601 31.5876C92.4361 31.3138 92.6921 31.0844 92.9659 31.0604C93.987 30.9021 94.8771 30.8242 96.3149 30.6984C102.67 30.0044 101.456 19.2788 95.258 19.4071C92.9806 19.3994 93.2665 19.5124 91.7602 19.6442C91.5547 19.6621 91.3998 19.4687 91.3879 19.3318C90.6819 12.8393 89.6891 10.1664 84.3486 10.6337C79.7612 11.035 78.5989 14.3103 79.12 20.2671C79.144 20.541 78.9625 20.8328 78.6202 20.8628C71.6364 21.4738 73.0416 32.8036 79.7455 32.1481C79.9509 32.1301 80.1058 32.3235 80.1238 32.5289C80.4019 34.9193 81.3219 46.2226 81.4237 47.3866C81.9337 54.7931 85.6694 59.6407 94.0466 59.1838Z" fill="white"/>
<path d="M65.8433 46.7631C63.9656 47.5333 61.6452 47.9114 59.663 47.7031C56.382 47.3582 53.6764 45.4844 54.1758 41.3903C54.2045 41.1169 59.4534 41.8068 62.6804 42.0078C70.6453 42.4994 74.5341 41.6641 75.22 34.4798C76.1035 24.7593 67.4435 19.7026 58.6836 19.5421C43.5094 19.2602 41.2703 33.3304 40.8467 38.6763C40.1289 49.4509 46.5913 57.663 55.9269 58.9206C61.7226 59.668 68.3203 58.7028 72.3665 52.4246C74.0137 49.9025 73.416 46.3842 69.9983 46.025C68.9046 45.9101 67.5017 46.1081 65.8433 46.7631ZM54.9874 32.3533C55.113 30.5006 57.4837 29.644 59.671 29.8739C61.5849 30.0751 63.3442 31.0893 63.3337 33.1614C63.3302 33.8522 60.8948 34.0108 58.6391 33.7737C56.7252 33.5726 54.9156 33.0368 54.9874 32.3533Z" fill="white"/>
<path d="M17.3545 15.9305C15.6172 12.6328 12.6097 11.3781 9.80249 11.6237C5.28358 12.0191 1.31151 16.2991 4.08612 21.9898C6.79227 27.6863 19.6692 52.6389 21.0993 54.7906C23.2295 57.8468 25.6087 59.0185 27.7997 58.8269C30.3331 58.6052 32.5557 56.41 33.4561 53.2955C35.8364 45.0152 40.0362 32.2981 44.6879 18.4376C46.5546 12.9618 42.3755 8.56696 37.8566 8.96232C35.0494 9.20791 32.136 11.3946 30.5073 16.4356C27.0418 27.2946 26.4991 31.3436 25.4721 31.4335C23.9033 31.6397 19.0114 19.0971 17.3545 15.9305Z" fill="white"/>
</svg>
